<svg width="22" height="22" viewBox="0 0 22 22" fill="none" xmlns="http://www.w3.org/2000/svg">
<path d="M4.79289 5.94599L2 3.19833L3.21806 2L6.01096 4.74766H19.1387C19.6144 4.74766 20 5.12703 20 5.59501C20 5.67748 19.9878 5.7595 19.9637 5.83849L17.8966 12.6174C17.7873 12.9757 17.4519 13.2212 17.0716 13.2212H6.5155V14.9159H15.9899V16.6106H5.6542C5.17851 16.6106 4.79289 16.2312 4.79289 15.7632V5.94599ZM6.5155 6.44237V11.5265H16.4308L17.9811 6.44237H6.5155ZM6.08485 20C5.37132 20 4.79289 19.4309 4.79289 18.729C4.79289 18.027 5.37132 17.4579 6.08485 17.4579C6.79838 17.4579 7.3768 18.027 7.3768 18.729C7.3768 19.4309 6.79838 20 6.08485 20ZM16.4205 20C15.7069 20 15.1286 19.4309 15.1286 18.729C15.1286 18.027 15.7069 17.4579 16.4205 17.4579C17.134 17.4579 17.7125 18.027 17.7125 18.729C17.7125 19.4309 17.134 20 16.4205 20Z" fill="black"/>
</svg>
