<svg width="0" height="0" class="hidden">
  <symbol fill="none" xmlns="http://www.w3.org/2000/svg" viewBox="0 0 22 22" id="cart">
    <path d="M4.79289 5.94599L2 3.19833L3.21806 2L6.01096 4.74766H19.1387C19.6144 4.74766 20 5.12703 20 5.59501C20 5.67748 19.9878 5.7595 19.9637 5.83849L17.8966 12.6174C17.7873 12.9757 17.4519 13.2212 17.0716 13.2212H6.5155V14.9159H15.9899V16.6106H5.6542C5.17851 16.6106 4.79289 16.2312 4.79289 15.7632V5.94599ZM6.5155 6.44237V11.5265H16.4308L17.9811 6.44237H6.5155ZM6.08485 20C5.37132 20 4.79289 19.4309 4.79289 18.729C4.79289 18.027 5.37132 17.4579 6.08485 17.4579C6.79838 17.4579 7.3768 18.027 7.3768 18.729C7.3768 19.4309 6.79838 20 6.08485 20ZM16.4205 20C15.7069 20 15.1286 19.4309 15.1286 18.729C15.1286 18.027 15.7069 17.4579 16.4205 17.4579C17.134 17.4579 17.7125 18.027 17.7125 18.729C17.7125 19.4309 17.134 20 16.4205 20Z" fill="currentColor"></path>
  </symbol>
  <symbol fill="none" xmlns="http://www.w3.org/2000/svg" viewBox="0 0 22 22" id="sort">
    <path d="M17.3 2V14.7059H20L16.4 20L12.8 14.7059H15.5V2H17.3ZM10.1 16.8235V18.9412H2V16.8235H10.1ZM11.9 9.41177V11.5294H2V9.41177H11.9ZM11.9 2V4.11765H2V2H11.9Z" fill="currentColor"></path>
  </symbol>
  <symbol fill="none" xmlns="http://www.w3.org/2000/svg" viewBox="0 0 22 22" id="star-fill">
    <path d="M11 16.7262L5.4377 20L6.68001 13.426L2 8.87539L8.33011 8.08623L11 2L13.6699 8.08623L20 8.87539L15.3201 13.426L16.5623 20L11 16.7262Z" fill="currentColor"></path>
  </symbol>
  <symbol fill="none" xmlns="http://www.w3.org/2000/svg" viewBox="0 0 22 22" id="star-half-line">
    <path d="M11 14.8258L14.349 16.7968L13.601 12.8388L16.4187 10.0989L12.6075 9.62376L11 5.95935V14.8258ZM11 16.7262L5.4377 20L6.68001 13.426L2 8.87539L8.33011 8.08623L11 2L13.6699 8.08623L20 8.87539L15.3201 13.426L16.5623 20L11 16.7262Z" fill="currentColor"></path>
  </symbol>
  <symbol fill="none" xmlns="http://www.w3.org/2000/svg" viewBox="0 0 22 22" id="star-line">
    <path d="M11 16.7262L5.4377 20L6.68001 13.426L2 8.87539L8.33011 8.08623L11 2L13.6699 8.08623L20 8.87539L15.3201 13.426L16.5623 20L11 16.7262ZM11 14.8258L14.349 16.7968L13.601 12.8388L16.4187 10.0989L12.6075 9.62376L11 5.95935L9.39252 9.62376L5.58128 10.0989L8.39902 12.8388L7.65105 16.7968L11 14.8258Z" fill="currentColor"></path>
  </symbol>
  <symbol fill="none" xmlns="http://www.w3.org/2000/svg" viewBox="0 0 22 22" id="heart">
    <path d="M11.0007 3.48843C13.1148 1.43522 16.3817 1.50338 18.418 3.71125C20.4544 5.91912 20.5244 9.43662 18.6304 11.7308L10.9997 20L3.36921 11.7308C1.47535 9.43662 1.54615 5.91356 3.58159 3.71125C5.61934 1.50645 8.88054 1.43217 11.0007 3.48843Z" fill="currentColor"></path>
  </symbol>
</svg>